# xmcd
#
# Track frame offsets: 
#        150
#        17390
#        32790
#        52160
#        70632
#        88010
#        104400
#        117772
#        135250
#        155615
#        175470
#        191820
#        206597
#        221832
#
# Disc length: 3189 seconds
#
# Revision: 1
# Processed by: cddbd v1.5.2PL0 Copyright (c) Steve Scherf et al.
# Submitted via: ExactAudioCopyFreeDBPlugin 1.0
#
DISCID=c60c730e
DTITLE=14 Bis - Meus Momentos
DYEAR=1900
DGENRE=MPB
TTITLE0=Todo Azul do Mar
TTITLE1=Caçador de Mim
TTITLE2=Planeta Sonho
TTITLE3=Canção da América (Unencounter)
TTITLE4=Linda Juventude
TTITLE5=Nos Bailes da Vida
TTITLE6=Bola de Meia, Bola de Gude
TTITLE7=Nova Manhã
TTITLE8=Além Paraiso
TTITLE9=Uma Velha Canção Rock ´N´ Roll
TTITLE10=Natural
TTITLE11=Perdido Em Abbey Road
TTITLE12=Mesmo de Brincadeira
TTITLE13=Espanhola
EXTD=
EXTT0=Flavio Venturini - Ronaldo Bastos
EXTT1=Sá - Sérgio Magrão
EXTT2=Flavio Venturini - Marcio Borges /Vermelho
EXTT3=Fernando Brant - Milton Nascimento
EXTT4=Flavio Venturini - Marcio Borges
EXTT5=Fernando Brant - Milto Nascimento
EXTT6=Fernando Brant - Milto Nascimento
EXTT7=Flavio Venturini - Tavinho Moura - Vermelho
EXTT8=Flavio Venturini - Marcio Borges/ Vermelho
EXTT9=Flavio Venturini - Murilo Antunes - Vermelho
EXTT10=Tavinho Moura - Venturini
EXTT11=Venturini - Vermelho
EXTT12=Claudio Venturini - Mariozinho Rocha - Vermelho
EXTT13=Flavio Venturini - Guarabira
PLAYORDER=
